<svg xmlns="http://www.w3.org/2000/svg" viewBox="0 0 512 512" width="16" height="16" fill="#c30101" style="enable-background:new 0 0 512 512" xml:space="preserve"><rect width="100%" height="100%" fill="#ffffeb"/><path d="M467.862 0H44.138C19.421 0 0 19.421 0 44.138v423.724C0 492.579 19.421 512 44.138 512h423.724C492.579 512 512 492.579 512 467.862V44.138C512 19.421 492.579 0 467.862 0zm26.483 467.862c0 15.007-11.476 26.483-26.483 26.483H44.138c-15.007 0-26.483-11.476-26.483-26.483V44.138c0-15.007 11.476-26.483 26.483-26.483h423.724c15.007 0 26.483 11.476 26.483 26.483v423.724z"/><path d="M300.138 256c0-24.717-19.421-44.138-44.138-44.138S211.862 231.283 211.862 256s19.421 44.138 44.138 44.138 44.138-19.421 44.138-44.138zm-70.621 0c0-15.007 11.476-26.483 26.483-26.483s26.483 11.476 26.483 26.483-11.476 26.483-26.483 26.483-26.483-11.476-26.483-26.483zm-79.448 150.069c24.717 0 44.138-19.421 44.138-44.138s-19.421-44.138-44.138-44.138-44.138 19.421-44.138 44.138 19.421 44.138 44.138 44.138zm0-70.621c15.007 0 26.483 11.476 26.483 26.483s-11.476 26.483-26.483 26.483-26.483-11.476-26.483-26.483 11.476-26.483 26.483-26.483zm0-141.241c24.717 0 44.138-19.421 44.138-44.138s-19.421-44.138-44.138-44.138-44.138 19.421-44.138 44.138 19.421 44.138 44.138 44.138zm0-70.621c15.007 0 26.483 11.476 26.483 26.483s-11.476 26.483-26.483 26.483-26.483-11.476-26.483-26.483 11.476-26.483 26.483-26.483zm211.862 194.207c-24.717 0-44.138 19.421-44.138 44.138s19.421 44.138 44.138 44.138 44.138-19.421 44.138-44.138-19.421-44.138-44.138-44.138zm0 70.621c-15.007 0-26.483-11.476-26.483-26.483s11.476-26.483 26.483-26.483 26.483 11.476 26.483 26.483-11.476 26.483-26.483 26.483zm0-194.207c24.717 0 44.138-19.421 44.138-44.138s-19.421-44.138-44.138-44.138-44.138 19.421-44.138 44.138 19.421 44.138 44.138 44.138zm0-70.621c15.007 0 26.483 11.476 26.483 26.483s-11.476 26.483-26.483 26.483-26.483-11.476-26.483-26.483 11.476-26.483 26.483-26.483z"/><path d="M379.586 450.207H66.207c-2.648 0-4.414-1.766-4.414-4.414V176.552c0-5.297-3.531-8.828-8.828-8.828s-8.828 3.531-8.828 8.828v269.241c0 12.359 9.71 22.069 22.069 22.069h313.379c5.297 0 8.828-3.531 8.828-8.828.001-5.296-3.53-8.827-8.827-8.827zm66.207-406.069H66.207c-12.359 0-22.069 9.71-22.069 22.069v39.724c0 5.297 3.531 8.828 8.828 8.828s8.828-3.531 8.828-8.828V66.207c0-2.648 1.766-4.414 4.414-4.414h379.586c2.648 0 4.414 1.766 4.414 4.414v379.586c0 2.648-1.766 4.414-4.414 4.414h-30.897c-5.297 0-8.828 3.531-8.828 8.828 0 5.297 3.531 8.828 8.828 8.828h30.897c12.359 0 22.069-9.71 22.069-22.069V66.207c-.001-12.359-9.711-22.069-22.07-22.069zM52.966 150.069c5.297 0 8.828-3.531 8.828-8.828s-3.531-8.828-8.828-8.828-8.828 3.531-8.828 8.828 3.531 8.828 8.828 8.828z"/></svg>